HIERARCHY
ROOT Hips
{
	OFFSET 0.000000 0.000000 0.000000
	CHANNELS 6 Xposition Yposition Zposition Zrotation Yrotation Xrotation 
	JOINT LHipJoint
	{
		OFFSET 0.000000 0.000000 0.000000
		CHANNELS 3 Zrotation Yrotation Xrotation
		JOINT LeftUpLeg
		{
			OFFSET 1.363060 -1.794630 0.839290
			CHANNELS 3 Zrotation Yrotation Xrotation
			JOINT LeftLeg
			{
				OFFSET 2.448110 -6.726130 0.000000
				CHANNELS 3 Zrotation Yrotation Xrotation
				JOINT LeftFoot
				{
					OFFSET 2.562200 -7.039590 0.000000
					CHANNELS 3 Zrotation Yrotation Xrotation
					JOINT LeftToeBase
					{
						OFFSET 0.157640 -0.433110 2.322550
						CHANNELS 3 Zrotation Yrotation Xrotation
						End Site
						{
							OFFSET 0.000000 0.000000 0.000000
						}
					}
				}
			}
		}
	}
	JOINT RHipJoint
	{
		OFFSET 0.000000 0.000000 0.000000
		CHANNELS 3 Zrotation Yrotation Xrotation
		JOINT RightUpLeg
		{
			OFFSET -1.305520 -1.794630 0.839290
			CHANNELS 3 Zrotation Yrotation Xrotation
			JOINT RightLeg
			{
				OFFSET -2.542530 -6.985550 0.000000
				CHANNELS 3 Zrotation Yrotation Xrotation
				JOINT RightFoot
				{
					OFFSET -2.568260 -7.056230 0.000000
					CHANNELS 3 Zrotation Yrotation Xrotation
					JOINT RightToeBase
					{
						OFFSET -0.164730 -0.452590 2.363150
						CHANNELS 3 Zrotation Yrotation Xrotation
						End Site
						{
							OFFSET 0.000000 0.000000 0.000000
						}
					}
				}
			}
		}
	}
	JOINT LowerBack
	{
		OFFSET 0.000000 0.000000 0.000000
		CHANNELS 3 Zrotation Yrotation Xrotation
		JOINT Spine
		{
			OFFSET 0.028270 2.035590 -0.193380
			CHANNELS 3 Zrotation Yrotation Xrotation
			JOINT Spine1
			{
				OFFSET 0.056720 2.048850 -0.042750
				CHANNELS 3 Zrotation Yrotation Xrotation
				JOINT Neck
				{
					OFFSET 0.000000 0.000000 0.000000
					CHANNELS 3 Zrotation Yrotation Xrotation
					JOINT Neck1
					{
						OFFSET -0.054170 1.746240 0.172020
						CHANNELS 3 Zrotation Yrotation Xrotation
						JOINT Head
						{
							OFFSET 0.104070 1.761360 -0.123970
							CHANNELS 3 Zrotation Yrotation Xrotation
							End Site
							{
								OFFSET 0.000000 0.000000 0.000000
							}
						}
					}
				}
				JOINT LeftShoulder
				{
					OFFSET 0.000000 0.000000 0.000000
					CHANNELS 3 Zrotation Yrotation Xrotation
					JOINT LeftArm
					{
						OFFSET 3.362410 1.200890 -0.311210
						CHANNELS 3 Zrotation Yrotation Xrotation
						JOINT LeftForeArm
						{
							OFFSET 4.983000 -0.000000 -0.000000
							CHANNELS 3 Zrotation Yrotation Xrotation
							JOINT LeftHand
							{
								OFFSET 3.483560 -0.000000 -0.000000
								CHANNELS 3 Zrotation Yrotation Xrotation
								JOINT LeftFingerBase
								{
									OFFSET 0.000000 0.000000 0.000000
									CHANNELS 3 Zrotation Yrotation Xrotation
									JOINT LeftHandIndex1
									{
										OFFSET 0.715260 -0.000000 -0.000000
										CHANNELS 3 Zrotation Yrotation Xrotation
										End Site
										{
											OFFSET 0.000000 0.000000 0.000000
										}
									}
								}
								JOINT LThumb
								{
									OFFSET 0.000000 0.000000 0.000000
									CHANNELS 3 Zrotation Yrotation Xrotation
									End Site
									{
										OFFSET 0.000000 0.000000 0.000000
									}
								}
							}
						}
					}
				}
				JOINT RightShoulder
				{
					OFFSET 0.000000 0.000000 0.000000
					CHANNELS 3 Zrotation Yrotation Xrotation
					JOINT RightArm
					{
						OFFSET -3.136600 1.374050 -0.404650
						CHANNELS 3 Zrotation Yrotation Xrotation
						JOINT RightForeArm
						{
							OFFSET -5.241900 -0.000000 -0.000000
							CHANNELS 3 Zrotation Yrotation Xrotation
							JOINT RightHand
							{
								OFFSET -3.444170 -0.000000 -0.000000
								CHANNELS 3 Zrotation Yrotation Xrotation
								JOINT RightFingerBase
								{
									OFFSET 0.000000 0.000000 0.000000
									CHANNELS 3 Zrotation Yrotation Xrotation
									JOINT RightHandIndex1
									{
										OFFSET -0.622530 -0.000000 -0.000000
										CHANNELS 3 Zrotation Yrotation Xrotation
										End Site
										{
											OFFSET 0.000000 0.000000 0.000000
										}
									}
								}
								JOINT RThumb
								{
									OFFSET 0.000000 0.000000 0.000000
									CHANNELS 3 Zrotation Yrotation Xrotation
									End Site
									{
										OFFSET 0.000000 0.000000 0.000000
									}
								}
							}
						}
					}
				}
			}
		}
	}
}
MOTION
Frames: 8
Frame Time: 0.008333
9.858447 18.141419 -5.284918 0.809895 20.632892 1.176351 -1.873958 2.057219 2.650357 -8.942570 2.461558 -9.203440 4.283340 12.880578 39.854494 -3.053975 19.248473 4.967158 0.917300 6.102400 17.081900 0.828814 -1.360814 1.047498 19.334253 0.211447 -14.207089 -1.684135 -9.076034 26.794007 1.371854 -8.013916 -3.275735 -0.140200 -2.413500 6.649900 -0.142294 -1.778012 8.891296 2.287477 -2.161950 1.387251 2.876655 -1.251067 -3.546236 -13.784853 -9.214322 -7.902546 8.351096 -12.279615 25.127073 4.805300 -6.106200 15.621400 -3.948565 -0.850195 -0.799798 -72.859111 -1.583717 69.025894 84.878823 -59.526236 -62.708613 1.036239 -1.773780 -6.886576 14.618988 28.039330 7.040000 -7.125000 0.000000 0.000000 -19.981400 59.689600 -7.343700 3.416423 1.617231 -0.835720 76.329148 -6.649153 54.997369 -101.083797 59.382278 -72.046316 0.392921 0.139343 -17.103315 -11.514604 5.473449 -1.149200 7.125000 0.000000 0.000000 10.963300 -24.415200 5.548900 
9.848227 18.142020 -5.189231 0.868826 19.788852 1.239706 -1.850135 1.986568 2.596942 -9.027596 2.293409 -9.822963 4.511905 13.138116 40.942919 -2.434220 16.119635 5.647332 0.596200 4.943300 13.746900 0.827401 -1.346371 1.057405 19.474024 0.881722 -13.752914 -1.683187 -9.058220 26.793268 1.366847 -7.988504 -3.502020 -0.186400 -2.780700 7.668700 -0.063646 -1.656303 8.678456 2.261330 -2.001744 1.404581 2.739455 -1.167894 -3.399989 -13.751131 -9.239886 -8.182510 8.276925 -12.305821 25.304699 4.761700 -6.113600 15.784600 -3.950960 -0.841782 -0.803296 -73.046554 -1.574373 69.035889 84.986039 -59.547631 -62.794847 1.034482 -1.786339 -7.144619 15.045253 28.241979 7.319000 -7.125000 0.000000 0.000000 -19.688400 60.002500 -7.378800 3.409224 1.615174 -0.839306 76.291920 -6.756037 54.624582 -101.603709 59.353528 -72.472406 0.385982 0.113874 -17.233282 -10.774465 5.732706 -1.130300 7.125000 0.000000 0.000000 11.497000 -24.146400 5.902600 
9.843919 18.136910 -5.088334 0.843190 18.668994 1.356286 -1.825178 1.916657 2.548762 -9.063233 2.323785 -10.511416 4.713285 13.364403 41.942866 -1.870995 12.907192 5.875119 0.337900 3.735600 10.333900 0.824729 -1.331090 1.062215 19.694838 1.819948 -13.278481 -1.680424 -9.042006 26.798452 1.350961 -7.920821 -3.834325 -0.216300 -2.993800 8.261400 0.088906 -1.429649 8.256168 2.242564 -1.700766 1.429535 2.549799 -1.015726 -3.138612 -13.585200 -9.250724 -8.492210 8.022508 -12.320594 25.582183 4.613800 -6.118000 15.969600 -3.950161 -0.842316 -0.805782 -73.227348 -1.560865 69.056580 84.998778 -59.556718 -62.820606 1.032919 -1.789030 -7.100250 15.100344 28.193215 7.338300 -7.125000 0.000000 0.000000 -19.594500 59.972300 -7.327700 3.406254 1.594477 -0.847142 76.148677 -6.715912 54.348248 -102.005957 59.335397 -72.802048 0.373250 0.085810 -17.640419 -9.817674 5.942767 -1.071700 7.125000 0.000000 0.000000 12.194300 -23.929500 6.338900 
9.819571 18.123083 -5.026714 0.670020 18.649254 0.851671 -1.795520 1.869181 2.511306 -8.873054 1.366805 -10.707245 4.881404 13.568736 42.847419 -1.353879 9.664861 5.892843 0.157200 2.554700 7.041300 0.820352 -1.328802 1.078271 20.102269 1.935794 -12.539048 -1.691760 -9.036195 26.844583 1.432611 -8.295389 -4.221068 -0.232200 -3.101500 8.561500 0.371628 -1.619107 8.976149 2.261759 -1.900914 1.458054 2.461741 -1.103788 -3.449596 -13.418325 -9.214911 -8.627986 7.867021 -12.283197 25.702548 4.515100 -6.093900 16.041700 -3.951962 -0.849409 -0.812468 -73.375123 -1.475780 68.902925 84.935865 -59.541074 -62.801976 1.035467 -1.773650 -6.940069 14.676744 27.746593 7.009600 -7.125000 0.000000 0.000000 -19.700100 59.429300 -7.111800 3.409401 1.605724 -0.847267 75.915276 -6.419705 54.510835 -101.875384 59.342318 -72.691948 0.375239 0.079277 -17.388620 -9.709301 6.062922 -1.082200 7.125000 0.000000 0.000000 12.263200 -23.807300 6.411800 
9.800434 18.108154 -4.951367 0.606541 18.360524 0.531326 -1.778835 1.811476 2.470654 -8.811449 0.660524 -11.034701 5.019402 13.736400 43.621217 -0.878725 6.390075 5.615098 0.059700 1.576500 4.336600 0.816213 -1.323669 1.093202 20.397663 2.098546 -11.918305 -1.708583 -9.041669 26.921021 1.464379 -8.444177 -4.462625 -0.238200 -3.141000 8.671400 0.473130 -1.691381 9.341890 2.287104 -1.976885 1.481196 2.466153 -1.132856 -3.597223 -13.393878 -9.164583 -8.584893 7.776426 -12.209716 25.718379 4.480500 -6.074400 16.016100 -3.952456 -0.846305 -0.816801 -73.607632 -1.250441 68.761019 84.965043 -59.544740 -62.846152 1.043408 -1.765422 -6.938668 14.435228 27.608773 6.848400 -7.125000 0.000000 0.000000 -19.854100 59.232800 -7.076100 3.413142 1.607022 -0.844817 75.627115 -6.266802 54.674729 -101.792271 59.347834 -72.621028 0.379000 0.077838 -16.991590 -9.787284 6.104650 -1.098500 7.125000 0.000000 0.000000 12.200500 -23.764600 6.389900 
9.788210 18.093024 -4.865199 0.729826 17.921604 0.435753 -1.780195 1.738840 2.415927 -8.980856 0.031298 -11.491387 5.136469 13.876593 44.270739 -0.472759 3.399074 5.527419 0.023100 0.981800 2.698700 0.820417 -1.313758 1.111740 20.462283 2.371785 -11.375254 -1.724169 -9.049544 26.998852 1.460535 -8.435866 -4.715689 -0.256200 -3.256900 8.994700 0.427265 -1.664539 9.370011 2.268188 -1.951875 1.479629 2.445252 -1.112035 -3.621870 -13.505808 -9.164201 -8.335066 7.831971 -12.218855 25.626021 4.529400 -6.097800 15.915500 -3.955948 -0.829484 -0.818698 -73.869383 -1.010676 68.749354 84.998050 -59.552199 -62.872531 1.050744 -1.773010 -6.981630 14.531004 27.872085 6.953400 -7.125000 0.000000 0.000000 -19.962100 59.512100 -7.250900 3.409203 1.612963 -0.837682 75.366140 -6.247304 54.656904 -101.849838 59.344958 -72.665958 0.379361 0.075181 -16.858324 -9.757827 6.116566 -1.097700 7.125000 0.000000 0.000000 12.221200 -23.751600 6.405000 
9.775586 18.077294 -4.778329 0.784343 17.458974 0.347838 -1.781452 1.673482 2.362395 -9.113631 -0.461672 -11.966478 5.229292 13.985228 44.774080 -0.142755 0.733202 5.500561 0.001400 0.244500 0.671800 0.824080 -1.302503 1.125406 20.590338 2.671676 -10.893141 -1.741071 -9.061991 27.086878 1.457727 -8.434441 -4.948246 -0.262500 -3.296400 9.105000 0.426334 -1.647611 9.342971 2.247956 -1.934036 1.513746 2.390846 -1.098444 -3.542802 -13.495384 -9.193496 -8.319296 7.858580 -12.284789 25.659411 4.529400 -6.121900 15.936700 -3.962423 -0.817559 -0.821176 -74.110975 -0.978589 68.758815 84.783123 -59.522153 -62.698188 1.032630 -1.790476 -6.835839 14.936878 27.804935 7.162800 -7.125000 0.000000 0.000000 -19.481900 59.562700 -7.091800 3.408987 1.617291 -0.831849 75.174483 -6.071390 54.681118 -101.799851 59.352444 -72.619948 0.382151 0.074982 -16.777208 -9.820261 6.166652 -1.113900 7.125000 0.000000 0.000000 12.169600 -23.700200 6.391500 
9.760556 18.062665 -4.695868 0.619364 16.951091 0.172883 -1.774361 1.624422 2.315952 -9.028396 -0.872397 -12.417709 5.305395 14.073471 45.157695 0.096976 -1.407071 5.213426 0.006200 -0.509900 -1.401200 0.821434 -1.292750 1.135250 20.958070 2.977154 -10.429710 -1.760485 -9.076569 27.188233 1.440538 -8.371884 -5.153370 -0.272500 -3.357700 9.276100 0.627899 -1.628250 9.421070 2.267701 -1.883526 1.550307 2.300121 -1.070209 -3.519190 -13.415906 -9.185431 -8.381625 7.807600 -12.293982 25.760329 4.491000 -6.120200 15.993500 -3.964632 -0.813677 -0.823890 -74.289962 -0.936191 68.808399 84.584490 -59.494063 -62.536429 1.002845 -1.812181 -6.478727 15.459772 27.682623 7.424000 -7.125000 0.000000 0.000000 -18.831900 59.590400 -6.857200 3.413722 1.617456 -0.830126 75.005258 -5.872081 54.706683 -101.693773 59.363260 -72.530499 0.380662 0.072522 -16.624967 -9.738092 6.146631 -1.101100 7.125000 0.000000 0.000000 12.232500 -23.720700 6.420100 
